<mxfile host="app.diagrams.net" modified="2021-01-25T11:41:38.371Z" agent="5.0 (X11)" etag="pFj-B_Kv2azsLzxHmnvy" version="14.2.7" type="github">
  <diagram id="C5RBs43oDa-KdzZeNtuy" name="Page-1">
    <mxGraphModel dx="1695" dy="1599" grid="1" gridSize="10" guides="1" tooltips="1" connect="1" arrows="1" fold="1" page="1" pageScale="1" pageWidth="827" pageHeight="1169" math="0" shadow="0">
      <root>
        <mxCell id="WIyWlLk6GJQsqaUBKTNV-0" />
        <mxCell id="WIyWlLk6GJQsqaUBKTNV-1" parent="WIyWlLk6GJQsqaUBKTNV-0" />
        <mxCell id="H8LJvpcK38ozFM1UjVnZ-5" value="" style="edgeStyle=orthogonalEdgeStyle;rounded=0;orthogonalLoop=1;jettySize=auto;html=1;" edge="1" parent="WIyWlLk6GJQsqaUBKTNV-1" source="H8LJvpcK38ozFM1UjVnZ-0" target="H8LJvpcK38ozFM1UjVnZ-4">
          <mxGeometry relative="1" as="geometry" />
        </mxCell>
        <mxCell id="H8LJvpcK38ozFM1UjVnZ-0" value="start" style="ellipse;whiteSpace=wrap;html=1;" vertex="1" parent="WIyWlLk6GJQsqaUBKTNV-1">
          <mxGeometry x="-10" y="-390" width="40" height="30" as="geometry" />
        </mxCell>
        <mxCell id="H8LJvpcK38ozFM1UjVnZ-8" value="" style="edgeStyle=orthogonalEdgeStyle;rounded=0;orthogonalLoop=1;jettySize=auto;html=1;" edge="1" parent="WIyWlLk6GJQsqaUBKTNV-1" source="H8LJvpcK38ozFM1UjVnZ-4" target="H8LJvpcK38ozFM1UjVnZ-7">
          <mxGeometry relative="1" as="geometry" />
        </mxCell>
        <object label="t1" id="H8LJvpcK38ozFM1UjVnZ-4">
          <mxCell style="whiteSpace=wrap;html=1;" vertex="1" parent="WIyWlLk6GJQsqaUBKTNV-1">
            <mxGeometry x="60" y="-395.62" width="25" height="41.25" as="geometry" />
          </mxCell>
        </object>
        <mxCell id="H8LJvpcK38ozFM1UjVnZ-6" value="GP" style="text;html=1;resizable=0;autosize=1;align=center;verticalAlign=middle;points=[];fillColor=none;strokeColor=none;rounded=0;" vertex="1" parent="WIyWlLk6GJQsqaUBKTNV-1">
          <mxGeometry x="57.5" y="-354.37" width="30" height="20" as="geometry" />
        </mxCell>
        <mxCell id="H8LJvpcK38ozFM1UjVnZ-10" value="" style="edgeStyle=orthogonalEdgeStyle;rounded=0;orthogonalLoop=1;jettySize=auto;html=1;" edge="1" parent="WIyWlLk6GJQsqaUBKTNV-1" source="H8LJvpcK38ozFM1UjVnZ-7" target="H8LJvpcK38ozFM1UjVnZ-9">
          <mxGeometry relative="1" as="geometry" />
        </mxCell>
        <mxCell id="H8LJvpcK38ozFM1UjVnZ-7" value="c1" style="ellipse;whiteSpace=wrap;html=1;" vertex="1" parent="WIyWlLk6GJQsqaUBKTNV-1">
          <mxGeometry x="120" y="-387.5" width="30" height="25" as="geometry" />
        </mxCell>
        <mxCell id="H8LJvpcK38ozFM1UjVnZ-15" value="" style="edgeStyle=orthogonalEdgeStyle;rounded=0;orthogonalLoop=1;jettySize=auto;html=1;" edge="1" parent="WIyWlLk6GJQsqaUBKTNV-1" source="H8LJvpcK38ozFM1UjVnZ-9" target="H8LJvpcK38ozFM1UjVnZ-14">
          <mxGeometry relative="1" as="geometry" />
        </mxCell>
        <mxCell id="H8LJvpcK38ozFM1UjVnZ-9" value="t2" style="whiteSpace=wrap;html=1;" vertex="1" parent="WIyWlLk6GJQsqaUBKTNV-1">
          <mxGeometry x="180" y="-387.5" width="25" height="25" as="geometry" />
        </mxCell>
        <mxCell id="H8LJvpcK38ozFM1UjVnZ-11" value="Patient" style="text;html=1;resizable=0;autosize=1;align=center;verticalAlign=middle;points=[];fillColor=none;strokeColor=none;rounded=0;" vertex="1" parent="WIyWlLk6GJQsqaUBKTNV-1">
          <mxGeometry x="185" y="-362.5" width="50" height="20" as="geometry" />
        </mxCell>
        <mxCell id="H8LJvpcK38ozFM1UjVnZ-17" value="" style="edgeStyle=orthogonalEdgeStyle;rounded=0;orthogonalLoop=1;jettySize=auto;html=1;" edge="1" parent="WIyWlLk6GJQsqaUBKTNV-1" source="H8LJvpcK38ozFM1UjVnZ-14" target="H8LJvpcK38ozFM1UjVnZ-16">
          <mxGeometry relative="1" as="geometry" />
        </mxCell>
        <mxCell id="H8LJvpcK38ozFM1UjVnZ-14" value="c2" style="ellipse;whiteSpace=wrap;html=1;" vertex="1" parent="WIyWlLk6GJQsqaUBKTNV-1">
          <mxGeometry x="230" y="-390" width="22.5" height="30" as="geometry" />
        </mxCell>
        <mxCell id="H8LJvpcK38ozFM1UjVnZ-20" value="" style="edgeStyle=orthogonalEdgeStyle;rounded=0;orthogonalLoop=1;jettySize=auto;html=1;" edge="1" parent="WIyWlLk6GJQsqaUBKTNV-1" source="H8LJvpcK38ozFM1UjVnZ-16" target="H8LJvpcK38ozFM1UjVnZ-19">
          <mxGeometry relative="1" as="geometry" />
        </mxCell>
        <mxCell id="H8LJvpcK38ozFM1UjVnZ-16" value="t2" style="whiteSpace=wrap;html=1;" vertex="1" parent="WIyWlLk6GJQsqaUBKTNV-1">
          <mxGeometry x="270" y="-390" width="26.25" height="30" as="geometry" />
        </mxCell>
        <mxCell id="H8LJvpcK38ozFM1UjVnZ-18" value="Elligible" style="text;html=1;resizable=0;autosize=1;align=center;verticalAlign=middle;points=[];fillColor=none;strokeColor=none;rounded=0;" vertex="1" parent="WIyWlLk6GJQsqaUBKTNV-1">
          <mxGeometry x="251.25" y="-360" width="60" height="20" as="geometry" />
        </mxCell>
        <mxCell id="H8LJvpcK38ozFM1UjVnZ-22" value="" style="edgeStyle=orthogonalEdgeStyle;rounded=0;orthogonalLoop=1;jettySize=auto;html=1;" edge="1" parent="WIyWlLk6GJQsqaUBKTNV-1" source="H8LJvpcK38ozFM1UjVnZ-19" target="H8LJvpcK38ozFM1UjVnZ-21">
          <mxGeometry relative="1" as="geometry" />
        </mxCell>
        <mxCell id="H8LJvpcK38ozFM1UjVnZ-19" value="c3" style="ellipse;whiteSpace=wrap;html=1;" vertex="1" parent="WIyWlLk6GJQsqaUBKTNV-1">
          <mxGeometry x="320" y="-390" width="40.62" height="30" as="geometry" />
        </mxCell>
        <mxCell id="H8LJvpcK38ozFM1UjVnZ-21" value="t3" style="whiteSpace=wrap;html=1;" vertex="1" parent="WIyWlLk6GJQsqaUBKTNV-1">
          <mxGeometry x="310.31" y="-340" width="59.69" height="30" as="geometry" />
        </mxCell>
        <mxCell id="H8LJvpcK38ozFM1UjVnZ-23" value="PTSS Account" style="text;html=1;resizable=0;autosize=1;align=center;verticalAlign=middle;points=[];fillColor=none;strokeColor=none;rounded=0;" vertex="1" parent="WIyWlLk6GJQsqaUBKTNV-1">
          <mxGeometry x="296.25" y="-310" width="90" height="20" as="geometry" />
        </mxCell>
        <mxCell id="H8LJvpcK38ozFM1UjVnZ-24" value="c4" style="ellipse;whiteSpace=wrap;html=1;" vertex="1" parent="WIyWlLk6GJQsqaUBKTNV-1">
          <mxGeometry x="430" y="-390" width="30" height="32.5" as="geometry" />
        </mxCell>
        <mxCell id="H8LJvpcK38ozFM1UjVnZ-28" value="c5" style="ellipse;whiteSpace=wrap;html=1;" vertex="1" parent="WIyWlLk6GJQsqaUBKTNV-1">
          <mxGeometry x="424.93" y="-317.5" width="40.15" height="35" as="geometry" />
        </mxCell>
        <mxCell id="H8LJvpcK38ozFM1UjVnZ-30" value="" style="endArrow=classic;html=1;exitX=1;exitY=0.25;exitDx=0;exitDy=0;" edge="1" parent="WIyWlLk6GJQsqaUBKTNV-1" source="H8LJvpcK38ozFM1UjVnZ-21">
          <mxGeometry width="50" height="50" relative="1" as="geometry">
            <mxPoint x="386.25" y="-325" as="sourcePoint" />
            <mxPoint x="430" y="-370" as="targetPoint" />
          </mxGeometry>
        </mxCell>
        <mxCell id="H8LJvpcK38ozFM1UjVnZ-32" value="" style="endArrow=classic;html=1;entryX=0;entryY=0.5;entryDx=0;entryDy=0;exitX=1;exitY=0.75;exitDx=0;exitDy=0;" edge="1" parent="WIyWlLk6GJQsqaUBKTNV-1" source="H8LJvpcK38ozFM1UjVnZ-21" target="H8LJvpcK38ozFM1UjVnZ-28">
          <mxGeometry width="50" height="50" relative="1" as="geometry">
            <mxPoint x="420" y="-180" as="sourcePoint" />
            <mxPoint x="470" y="-230" as="targetPoint" />
            <Array as="points">
              <mxPoint x="400" y="-307" />
            </Array>
          </mxGeometry>
        </mxCell>
        <mxCell id="H8LJvpcK38ozFM1UjVnZ-33" value="t4" style="rounded=1;whiteSpace=wrap;html=1;" vertex="1" parent="WIyWlLk6GJQsqaUBKTNV-1">
          <mxGeometry x="490" y="-390" width="50" height="27.5" as="geometry" />
        </mxCell>
        <mxCell id="H8LJvpcK38ozFM1UjVnZ-34" value="Form A" style="text;html=1;align=center;verticalAlign=middle;resizable=0;points=[];autosize=1;" vertex="1" parent="WIyWlLk6GJQsqaUBKTNV-1">
          <mxGeometry x="520" y="-302.5" width="50" height="20" as="geometry" />
        </mxCell>
        <mxCell id="H8LJvpcK38ozFM1UjVnZ-35" value="" style="endArrow=classic;html=1;exitX=1;exitY=0.5;exitDx=0;exitDy=0;" edge="1" parent="WIyWlLk6GJQsqaUBKTNV-1" source="H8LJvpcK38ozFM1UjVnZ-24">
          <mxGeometry width="50" height="50" relative="1" as="geometry">
            <mxPoint x="440" y="-327.5" as="sourcePoint" />
            <mxPoint x="490" y="-377.5" as="targetPoint" />
            <Array as="points" />
          </mxGeometry>
        </mxCell>
        <mxCell id="H8LJvpcK38ozFM1UjVnZ-36" value="Register" style="text;html=1;resizable=0;autosize=1;align=center;verticalAlign=middle;points=[];fillColor=none;strokeColor=none;rounded=0;" vertex="1" parent="WIyWlLk6GJQsqaUBKTNV-1">
          <mxGeometry x="485" y="-362.5" width="60" height="20" as="geometry" />
        </mxCell>
        <mxCell id="H8LJvpcK38ozFM1UjVnZ-37" value="c6" style="ellipse;whiteSpace=wrap;html=1;aspect=fixed;" vertex="1" parent="WIyWlLk6GJQsqaUBKTNV-1">
          <mxGeometry x="570" y="-394.75" width="37" height="37" as="geometry" />
        </mxCell>
        <mxCell id="H8LJvpcK38ozFM1UjVnZ-41" value="" style="endArrow=classic;html=1;exitX=1;exitY=0.5;exitDx=0;exitDy=0;" edge="1" parent="WIyWlLk6GJQsqaUBKTNV-1" source="H8LJvpcK38ozFM1UjVnZ-33">
          <mxGeometry width="50" height="50" relative="1" as="geometry">
            <mxPoint x="520" y="-327.5" as="sourcePoint" />
            <mxPoint x="570" y="-377.5" as="targetPoint" />
          </mxGeometry>
        </mxCell>
        <mxCell id="H8LJvpcK38ozFM1UjVnZ-42" value="t5" style="whiteSpace=wrap;html=1;aspect=fixed;" vertex="1" parent="WIyWlLk6GJQsqaUBKTNV-1">
          <mxGeometry x="530" y="-334.37" width="30" height="30" as="geometry" />
        </mxCell>
        <mxCell id="H8LJvpcK38ozFM1UjVnZ-43" value="" style="endArrow=classic;html=1;exitX=0;exitY=0.5;exitDx=0;exitDy=0;" edge="1" parent="WIyWlLk6GJQsqaUBKTNV-1" source="H8LJvpcK38ozFM1UjVnZ-42">
          <mxGeometry width="50" height="50" relative="1" as="geometry">
            <mxPoint x="414" y="-250" as="sourcePoint" />
            <mxPoint x="464" y="-300" as="targetPoint" />
          </mxGeometry>
        </mxCell>
        <mxCell id="H8LJvpcK38ozFM1UjVnZ-44" value="" style="endArrow=classic;html=1;entryX=1;entryY=0.25;entryDx=0;entryDy=0;exitX=0;exitY=1;exitDx=0;exitDy=0;" edge="1" parent="WIyWlLk6GJQsqaUBKTNV-1" source="H8LJvpcK38ozFM1UjVnZ-37" target="H8LJvpcK38ozFM1UjVnZ-42">
          <mxGeometry width="50" height="50" relative="1" as="geometry">
            <mxPoint x="545" y="-275" as="sourcePoint" />
            <mxPoint x="595" y="-325" as="targetPoint" />
          </mxGeometry>
        </mxCell>
        <mxCell id="H8LJvpcK38ozFM1UjVnZ-46" value="" style="endArrow=classic;html=1;exitX=0.5;exitY=1;exitDx=0;exitDy=0;entryX=0.5;entryY=0;entryDx=0;entryDy=0;" edge="1" parent="WIyWlLk6GJQsqaUBKTNV-1" source="H8LJvpcK38ozFM1UjVnZ-28">
          <mxGeometry width="50" height="50" relative="1" as="geometry">
            <mxPoint x="420" y="-180" as="sourcePoint" />
            <mxPoint x="445" y="-260" as="targetPoint" />
          </mxGeometry>
        </mxCell>
        <mxCell id="H8LJvpcK38ozFM1UjVnZ-47" value="t6" style="rounded=0;whiteSpace=wrap;html=1;" vertex="1" parent="WIyWlLk6GJQsqaUBKTNV-1">
          <mxGeometry x="420" y="-260" width="50" height="20" as="geometry" />
        </mxCell>
        <mxCell id="H8LJvpcK38ozFM1UjVnZ-48" value="Form B" style="text;html=1;align=center;verticalAlign=middle;resizable=0;points=[];autosize=1;" vertex="1" parent="WIyWlLk6GJQsqaUBKTNV-1">
          <mxGeometry x="420" y="-240" width="50" height="20" as="geometry" />
        </mxCell>
        <mxCell id="H8LJvpcK38ozFM1UjVnZ-52" value="" style="endArrow=classic;html=1;exitX=1;exitY=0.5;exitDx=0;exitDy=0;" edge="1" parent="WIyWlLk6GJQsqaUBKTNV-1" source="H8LJvpcK38ozFM1UjVnZ-47" target="H8LJvpcK38ozFM1UjVnZ-53">
          <mxGeometry width="50" height="50" relative="1" as="geometry">
            <mxPoint x="370" y="-160" as="sourcePoint" />
            <mxPoint x="420" y="-210" as="targetPoint" />
          </mxGeometry>
        </mxCell>
        <mxCell id="H8LJvpcK38ozFM1UjVnZ-53" value="c7" style="ellipse;whiteSpace=wrap;html=1;aspect=fixed;" vertex="1" parent="WIyWlLk6GJQsqaUBKTNV-1">
          <mxGeometry x="500" y="-265" width="30" height="30" as="geometry" />
        </mxCell>
        <mxCell id="H8LJvpcK38ozFM1UjVnZ-55" value="t7" style="rounded=0;whiteSpace=wrap;html=1;" vertex="1" parent="WIyWlLk6GJQsqaUBKTNV-1">
          <mxGeometry x="545" y="-265" width="45" height="25" as="geometry" />
        </mxCell>
        <mxCell id="H8LJvpcK38ozFM1UjVnZ-56" value="" style="endArrow=classic;html=1;exitX=1;exitY=0.5;exitDx=0;exitDy=0;entryX=0;entryY=0.5;entryDx=0;entryDy=0;" edge="1" parent="WIyWlLk6GJQsqaUBKTNV-1" source="H8LJvpcK38ozFM1UjVnZ-53" target="H8LJvpcK38ozFM1UjVnZ-55">
          <mxGeometry width="50" height="50" relative="1" as="geometry">
            <mxPoint x="370" y="-160" as="sourcePoint" />
            <mxPoint x="420" y="-210" as="targetPoint" />
          </mxGeometry>
        </mxCell>
        <mxCell id="H8LJvpcK38ozFM1UjVnZ-57" value="c9" style="ellipse;whiteSpace=wrap;html=1;aspect=fixed;" vertex="1" parent="WIyWlLk6GJQsqaUBKTNV-1">
          <mxGeometry x="650" y="-371.37" width="37" height="37" as="geometry" />
        </mxCell>
        <mxCell id="H8LJvpcK38ozFM1UjVnZ-58" value="c10" style="ellipse;whiteSpace=wrap;html=1;aspect=fixed;" vertex="1" parent="WIyWlLk6GJQsqaUBKTNV-1">
          <mxGeometry x="648.5" y="-320" width="40" height="40" as="geometry" />
        </mxCell>
        <mxCell id="H8LJvpcK38ozFM1UjVnZ-59" value="c11" style="ellipse;whiteSpace=wrap;html=1;aspect=fixed;" vertex="1" parent="WIyWlLk6GJQsqaUBKTNV-1">
          <mxGeometry x="648.5" y="-270" width="40" height="40" as="geometry" />
        </mxCell>
        <mxCell id="H8LJvpcK38ozFM1UjVnZ-60" value="" style="endArrow=classic;html=1;exitX=1;exitY=0;exitDx=0;exitDy=0;entryX=0;entryY=1;entryDx=0;entryDy=0;" edge="1" parent="WIyWlLk6GJQsqaUBKTNV-1" source="H8LJvpcK38ozFM1UjVnZ-55" target="H8LJvpcK38ozFM1UjVnZ-57">
          <mxGeometry width="50" height="50" relative="1" as="geometry">
            <mxPoint x="400" y="-160" as="sourcePoint" />
            <mxPoint x="450" y="-210" as="targetPoint" />
          </mxGeometry>
        </mxCell>
        <mxCell id="H8LJvpcK38ozFM1UjVnZ-61" value="" style="endArrow=classic;html=1;exitX=1;exitY=0.5;exitDx=0;exitDy=0;entryX=0.063;entryY=0.7;entryDx=0;entryDy=0;entryPerimeter=0;" edge="1" parent="WIyWlLk6GJQsqaUBKTNV-1" source="H8LJvpcK38ozFM1UjVnZ-55" target="H8LJvpcK38ozFM1UjVnZ-58">
          <mxGeometry width="50" height="50" relative="1" as="geometry">
            <mxPoint x="400" y="-160" as="sourcePoint" />
            <mxPoint x="450" y="-210" as="targetPoint" />
          </mxGeometry>
        </mxCell>
        <mxCell id="H8LJvpcK38ozFM1UjVnZ-62" value="&lt;div&gt;PTSS &lt;br&gt;&lt;/div&gt;&lt;div&gt;Back-end&lt;/div&gt;" style="text;html=1;align=center;verticalAlign=middle;resizable=0;points=[];autosize=1;" vertex="1" parent="WIyWlLk6GJQsqaUBKTNV-1">
          <mxGeometry x="532.5" y="-235" width="70" height="30" as="geometry" />
        </mxCell>
        <mxCell id="H8LJvpcK38ozFM1UjVnZ-66" value="" style="endArrow=classic;html=1;exitX=1;exitY=0.75;exitDx=0;exitDy=0;" edge="1" parent="WIyWlLk6GJQsqaUBKTNV-1" source="H8LJvpcK38ozFM1UjVnZ-55">
          <mxGeometry width="50" height="50" relative="1" as="geometry">
            <mxPoint x="400" y="-160" as="sourcePoint" />
            <mxPoint x="650" y="-246" as="targetPoint" />
          </mxGeometry>
        </mxCell>
      </root>
    </mxGraphModel>
  </diagram>
</mxfile>
